<?xml version="1.0" encoding="UTF-8"?>
<svg id="Layer_2" data-name="Layer 2" xmlns="http://www.w3.org/2000/svg" viewBox="0 0 473.1 131.06">
  <defs>
    <style>
      .cls-1 {
        fill: #fcc008;
      }

      .cls-1, .cls-2 {
        stroke-width: 0px;
      }

      .cls-3 {
        font-size: 54.78px;
      }

      .cls-3, .cls-2, .cls-4, .cls-5 {
        fill: #fff;
      }

      .cls-3, .cls-4 {
        font-family: ManifaPro2-Bold, ManifaPro2;
        font-weight: 700;
      }

      .cls-4 {
        font-size: 23.78px;
      }

      .cls-5 {
        font-family: DroidArabicKufi, 'Droid Arabic Kufi';
        font-size: 28.83px;
      }
    </style>
  </defs>
  <g id="Layer_1-2" data-name="Layer 1">
    <g>
      <polygon class="cls-1" points="39.14 82.66 74.2 69.33 44.86 40.56 39.14 82.66"/>
      <path class="cls-1" d="m0,110.27v13.64h60.51c18.32,0,34.48-9.23,44.09-23.3-7.51-7.16-15.02-14.31-22.53-21.47-27.36,10.38-54.71,20.75-82.07,31.13Z"/>
      <path class="cls-1" d="m37.82,2.18H0v96.51c8.51-3.24,17.03-6.48,25.54-9.72,4.09-28.93,8.18-57.86,12.27-86.79Z"/>
      <path class="cls-1" d="m113.88,57.52c0-30.56-24.78-55.34-55.34-55.34h-8.88c-.06.43-.12.86-.17,1.28-.25,2.22-.49,4.43-.73,6.65-.49,4.41-.9,8.83-1.46,13.23-.09.83-.18,1.68.04,2.48.3,1.07,1.11,1.91,1.89,2.71,20.28,20.6,40.56,41.19,60.84,61.79,2.44-6.12,3.8-12.79,3.8-19.77v-13.03Z"/>
      <path class="cls-2" d="m47.34,25.83c-.22-.8-.14-1.65-.04-2.48.56-4.4.97-8.83,1.46-13.23.24-2.22.49-4.43.73-6.65.05-.42.11-.85.17-1.28h-11.84c-4.09,28.93-8.18,57.86-12.27,86.79-8.51,3.24-17.03,6.48-25.54,9.72v11.59c27.36-10.38,54.71-20.75,82.07-31.13,7.51,7.16,15.02,14.31,22.53,21.47,2.18-3.2,4.02-6.65,5.48-10.29-20.28-20.6-40.56-41.19-60.84-61.79-.78-.8-1.6-1.64-1.89-2.71Zm-8.2,56.83l5.72-42.1,29.34,28.77-35.06,13.33Z"/>
    </g>
    <text class="cls-3" transform="translate(146.64 85.62)"><tspan x="0" y="0">ARABIAN DELTA</tspan></text>
    <text class="cls-5" transform="translate(145.63 32.75)"><tspan x="0" y="0">ةعانصلل ةيبرعلا اتلد ةكرش</tspan></text>
    <text class="cls-4" transform="translate(143.36 115.56)"><tspan x="0" y="0">OIL FIELD &amp; INDUSTRIAL HYDRAULICS </tspan></text>
  </g>
</svg>